<svg width="24" height="25" viewBox="0 0 24 25" fill="none" xmlns="http://www.w3.org/2000/svg">
<path d="M22 12.9533V15.0133C22 15.5733 21.54 16.0333 20.97 16.0333H19.04C17.96 16.0333 16.97 15.2433 16.88 14.1633C16.82 13.5333 17.06 12.9433 17.48 12.5333C17.85 12.1533 18.36 11.9333 18.92 11.9333H20.97C21.54 11.9333 22 12.3933 22 12.9533Z" fill="white"/>
<path d="M15.38 14.2932C15.29 13.2432 15.67 12.2132 16.43 11.4632C17.07 10.8132 17.96 10.4332 18.92 10.4332H19.49C19.77 10.4332 20 10.2032 19.96 9.92315C19.69 7.98315 18.01 6.48315 16 6.48315H6C3.79 6.48315 2 8.27315 2 10.4832V17.4832C2 19.6932 3.79 21.4832 6 21.4832H16C18.02 21.4832 19.69 19.9832 19.96 18.0432C20 17.7632 19.77 17.5332 19.49 17.5332H19.04C17.14 17.5332 15.54 16.1132 15.38 14.2932ZM13 12.2332H7C6.59 12.2332 6.25 11.9032 6.25 11.4832C6.25 11.0632 6.59 10.7332 7 10.7332H13C13.41 10.7332 13.75 11.0732 13.75 11.4832C13.75 11.8932 13.41 12.2332 13 12.2332Z" fill="white"/>
<path d="M14.2099 4.31335C14.4699 4.58335 14.2399 4.98335 13.8599 4.98335H6.02991C4.93991 4.98335 3.91991 5.30335 3.06991 5.85335C2.67991 6.10335 2.14991 5.83335 2.33991 5.40335C2.89991 4.09335 4.20991 3.18335 5.71991 3.18335H11.3399C12.4999 3.18335 13.5299 3.59335 14.2099 4.31335Z" fill="white"/>
</svg>
